<svg width="816" height="1056" xmlns="http://www.w3.org/2000/svg">
 <metadata id="metadata8">image/svg+xml</metadata>
 <defs>
  <clipPath clipPathUnits="userSpaceOnUse" id="clipPath18">
   <path d="m0,792l612,0l0,-792l-612,0l0,792z" id="path16"/>
  </clipPath>
 </defs>
 <g>
  <title>background</title>
  <rect fill="none" id="canvas_background" height="402" width="582" y="-1" x="-1"/>
 </g>
 <g>
  <title>Layer 1</title>
  <g id="g10" transform="matrix(1.3333333,0,0,-1.3333333,0,1056) ">
   <g id="g12">
    <g id="g14" clip-path="url(#clipPath18)">
     <g id="g20">
      <path fill="#3b73b9" fill-rule="nonzero" d="m347.257813,443.968811c0,21.141 14.309,41.664 22.125,37.773c8.895,-4.453 -6.656,-24.367 -22.125,-37.773m-97.371,-7.723c0,17.02 16.781,49.34 27.043,45.911c12.094,-4.04 -10.043,-36.633 -27.043,-45.911m-17.004,-121.617c-7.715,-0.351 -12.875,4.59 -12.875,12.82c0,22.153 30.715,43.301 53.895,54.633c-4.11,-30.91 -14.555,-66.238 -41.02,-67.453m141.684,72.121c-17.524,0 -30.914,-12.883 -30.914,-28.34c0,-12.871 7.734,-23.179 18.031,-23.179c3.609,0 7.219,2.062 7.219,6.691c0,6.703 -8.883,8.336 -8.192,18.359c0.442,6.594 6.656,11.024 12.832,11.024c12.352,0 18.141,-11.984 18.141,-24.344c-0.516,-19.066 -14.547,-32.332 -31.02,-32.332c-21.644,0 -35.551,20.602 -35.551,42.762c0,32.976 21.629,45.859 32.973,48.953c0.117,0 29.625,-5.273 28.715,7.754c-0.422,5.715 -8.922,7.918 -15.086,8.16c-6.852,0.277 -13.734,-2.187 -13.734,-2.187c-3.598,1.804 -6.078,5.351 -7.625,9.476c21.125,15.977 36.066,31.445 36.066,48.945c0,9.29 -6.187,17.524 -18.035,17.524c-21.129,0 -37.09,-26.797 -37.09,-51c0,-4.129 0,-8.25 1.031,-11.863c-13.394,-9.786 -23.363,-15.868 -41.386,-26.7c0,2.258 0.464,8.078 1.976,15.625c6.188,6.711 14.68,16.75 14.68,24.481c0,3.59 -2.055,6.707 -6.203,6.707c-10.289,0 -18.016,-15.473 -20.078,-26.301c-4.637,-5.672 -13.911,-12.891 -21.649,-12.891c-6.18,0 -8.23,5.676 -8.758,7.735c19.586,6.707 43.805,33.512 43.805,57.726c0,5.137 -2.066,16.481 -17.52,16.481c-23.187,0 -42.757,-34.516 -42.757,-61.317c-8.254,0 -11.34,8.754 -11.34,15.45c0,6.703 2.57,13.414 2.57,15.468c0,2.059 -1.031,4.637 -4.121,4.637c-7.73,0 -12.363,-10.301 -12.363,-22.148c0.523,-16.496 11.332,-26.813 25.765,-27.844c2.055,-9.793 10.817,-19.074 21.629,-19.074c6.7,0 14.946,2.062 20.617,7.218c-0.515,-3.601 -1.027,-6.703 -1.55,-9.796c-22.668,-11.86 -39.149,-20.11 -54.098,-33.493c-11.84,-10.832 -18.543,-25.246 -18.543,-36.57c0,-15.465 9.789,-29.883 29.879,-29.883c23.695,0 41.73,19.055 50.496,45.332c4.121,12.364 5.777,30.352 6.813,46.856c23.691,13.402 34.921,21.16 47.281,29.926c1.547,-2.575 3.101,-4.637 5.156,-6.184c-10.816,-5.676 -36.582,-21.648 -36.582,-59.266c0,-26.781 18.035,-56.664 53.582,-56.664c29.371,0 49.477,24.211 49.477,47.391c0,21.117 -11.856,40.695 -34.539,40.695m88.578,-44.25c-0.063,-0.164 -0.375,-0.398 -0.949,-0.191c-0.434,0.16 -0.567,0.375 -0.551,0.656c0.023,0.301 6.242,18.629 6.187,39.66c-0.07,22.696 -9.281,36.617 -21.117,36.617c-7.23,0 -12.375,-5.168 -12.375,-12.898c0,-13.922 17.004,-14.953 17.004,-45.355c0,-12.364 -2.578,-24.208 -6.707,-37.09c-19.051,-64.391 -79.859,-94.274 -139.094,-94.274c-27.316,0 -46.719,5.621 -52.508,8.219c-0.238,0.117 -0.429,0.562 -0.246,1.023c0.133,0.34 0.531,0.602 0.758,0.516c2.34,-0.926 19.012,-6.164 39.613,-6.164c22.68,0 36.063,9.289 36.063,20.613c0,7.215 -5.641,12.871 -12.867,12.871c-13.914,0 -14.961,-17.507 -44.832,-17.507c-12.883,0 -24.215,2.593 -37.614,6.71c-63.89,19.571 -94.332,79.852 -94.281,139.618c0.02,29.125 8.168,52.304 8.309,52.531c0.086,0.164 0.476,0.32 0.922,0.164c0.457,-0.164 0.578,-0.555 0.543,-0.676c-0.754,-2.414 -6.172,-19.031 -6.172,-39.644c0,-22.696 9.277,-36.082 21.125,-36.082c6.699,0 12.375,5.144 12.375,12.355c0,13.93 -17.016,15.469 -17.016,45.375c0,12.883 2.578,24.231 6.703,37.617c19.582,63.883 79.867,93.836 139.125,94.274c27.535,0.219 51.625,-8.028 52.543,-8.754c0.164,-0.137 0.34,-0.496 0.164,-0.918c-0.199,-0.488 -0.515,-0.547 -0.691,-0.516c-0.281,0.028 -15.953,6.578 -39.668,6.578c-22.153,0.012 -36.051,-9.269 -36.051,-21.129c0,-6.683 5.141,-12.347 12.875,-12.347c13.906,0 14.945,16.992 44.82,16.992c12.875,0 24.211,-2.562 37.602,-6.687c64.414,-19.59 93.73,-80.383 94.289,-139.133c0.285,-30.102 -8.188,-52.86 -8.281,-53.024m-157.602,230.274c-97.902,0 -177.254,-79.34 -177.254,-177.25c0,-97.899 79.352,-177.223 177.254,-177.223c97.883,0 177.231,79.324 177.231,177.223c0,97.39 -79.348,177.25 -177.231,177.25m0,-363.243c-102.539,0 -186.012,82.946 -186.012,185.993c0,102.554 83.473,186 186.012,186c102.516,0 185.985,-83.446 185.985,-186c0,-103.047 -83.469,-185.993 -185.985,-185.993" id="path22"/>
     </g>
    </g>
   </g>
  </g>
 </g>
</svg>